<svg width="32" height="33" viewBox="0 0 32 33" fill="none" xmlns="http://www.w3.org/2000/svg">
<path d="M20.5312 21.5899C20.5312 22.3288 20.3465 23.0369 19.9771 23.7141C19.6076 24.376 19.0612 24.9302 18.3377 25.3766C17.6296 25.823 16.7753 26.077 15.7748 26.1385V28.0088H14.528V26.1385C13.1272 26.0154 11.9881 25.569 11.1107 24.7993C10.2333 24.0143 9.78694 23.0215 9.77155 21.8208H12.0112C12.0728 22.4673 12.3114 23.0292 12.727 23.5063C13.158 23.9835 13.7583 24.2837 14.528 24.4068V18.6345C13.4966 18.3728 12.6654 18.1034 12.0343 17.8263C11.4032 17.5493 10.8644 17.1183 10.4181 16.5333C9.97166 15.9484 9.74846 15.1634 9.74846 14.1782C9.74846 12.9314 10.1795 11.9001 11.0415 11.0842C11.9189 10.2684 13.081 9.81431 14.528 9.72195V7.80553H15.7748V9.72195C17.0832 9.8297 18.1376 10.253 18.9381 10.9919C19.7385 11.7153 20.2003 12.662 20.3234 13.8319H18.0837C18.0068 13.2931 17.7682 12.8082 17.368 12.3772C16.9678 11.9308 16.4367 11.6384 15.7748 11.4998V17.1337C16.7907 17.3953 17.6143 17.6647 18.2454 17.9418C18.8919 18.2035 19.4306 18.6268 19.8616 19.2117C20.308 19.7966 20.5312 20.5894 20.5312 21.5899ZM11.8958 14.0628C11.8958 14.817 12.119 15.3943 12.5654 15.7945C13.0118 16.1947 13.666 16.5256 14.528 16.7873V11.4537C13.7275 11.5306 13.0887 11.7923 12.6115 12.2387C12.1344 12.6697 11.8958 13.2777 11.8958 14.0628ZM15.7748 24.4299C16.606 24.3376 17.2525 24.0374 17.7143 23.5294C18.1915 23.0215 18.4301 22.4134 18.4301 21.7054C18.4301 20.9511 18.1992 20.3739 17.7374 19.9737C17.2756 19.558 16.6214 19.2271 15.7748 18.9808V24.4299Z" fill="black"/>
<circle cx="15.5854" cy="17.3901" r="14.4309" stroke="black" stroke-width="2.30894"/>
</svg>
