<svg width="13" height="19" viewBox="0 0 13 19" fill="none" xmlns="http://www.w3.org/2000/svg">
<path d="M6.61357 18.175C5.46357 18.175 4.43024 17.975 3.51357 17.575C2.61357 17.1583 1.90524 16.5917 1.38857 15.875C0.871908 15.1417 0.605241 14.3 0.588574 13.35H3.01357C3.09691 14.1667 3.43024 14.8583 4.01357 15.425C4.61357 15.975 5.48024 16.25 6.61357 16.25C7.69691 16.25 8.54691 15.9833 9.16357 15.45C9.79691 14.9 10.1136 14.2 10.1136 13.35C10.1136 12.6833 9.93024 12.1417 9.56357 11.725C9.19691 11.3083 8.73857 10.9917 8.18857 10.775C7.63857 10.5583 6.89691 10.325 5.96357 10.075C4.81357 9.775 3.88857 9.475 3.18857 9.175C2.50524 8.875 1.91357 8.40833 1.41357 7.775C0.930241 7.125 0.688574 6.25833 0.688574 5.175C0.688574 4.225 0.930241 3.38333 1.41357 2.65C1.89691 1.91667 2.57191 1.35 3.43857 0.949999C4.32191 0.549999 5.33024 0.349999 6.46357 0.349999C8.09691 0.349999 9.43024 0.758333 10.4636 1.575C11.5136 2.39167 12.1052 3.475 12.2386 4.825H9.73857C9.65524 4.15833 9.30524 3.575 8.68857 3.075C8.07191 2.55833 7.25524 2.3 6.23857 2.3C5.28857 2.3 4.51357 2.55 3.91357 3.05C3.31357 3.53333 3.01357 4.21667 3.01357 5.1C3.01357 5.73333 3.18857 6.25 3.53857 6.65C3.90524 7.05 4.34691 7.35833 4.86357 7.575C5.39691 7.775 6.13857 8.00833 7.08857 8.275C8.23857 8.59167 9.16357 8.90833 9.86358 9.225C10.5636 9.525 11.1636 10 11.6636 10.65C12.1636 11.2833 12.4136 12.15 12.4136 13.25C12.4136 14.1 12.1886 14.9 11.7386 15.65C11.2886 16.4 10.6219 17.0083 9.73857 17.475C8.85524 17.9417 7.81357 18.175 6.61357 18.175Z" fill="black"/>
</svg>
