<svg width="28" height="28" viewBox="0 0 28 28" fill="none" xmlns="http://www.w3.org/2000/svg">
<path d="M20.78 3.46289C19.8614 3.46289 18.9805 3.82779 18.331 4.4773C17.6814 5.12682 17.3165 6.00775 17.3165 6.92631V20.78C17.3165 21.6985 17.6814 22.5795 18.331 23.229C18.9805 23.8785 19.8614 24.2434 20.78 24.2434C21.6985 24.2434 22.5795 23.8785 23.229 23.229C23.8785 22.5795 24.2434 21.6985 24.2434 20.78C24.2434 19.8614 23.8785 18.9805 23.229 18.331C22.5795 17.6814 21.6985 17.3165 20.78 17.3165H6.92631C6.00775 17.3165 5.12682 17.6814 4.4773 18.331C3.82779 18.9805 3.46289 19.8614 3.46289 20.78C3.46289 21.6985 3.82779 22.5795 4.4773 23.229C5.12682 23.8785 6.00775 24.2434 6.92631 24.2434C7.84486 24.2434 8.72579 23.8785 9.37531 23.229C10.0248 22.5795 10.3897 21.6985 10.3897 20.78V6.92631C10.3897 6.00775 10.0248 5.12682 9.37531 4.4773C8.72579 3.82779 7.84486 3.46289 6.92631 3.46289C6.00775 3.46289 5.12682 3.82779 4.4773 4.4773C3.82779 5.12682 3.46289 6.00775 3.46289 6.92631C3.46289 7.84486 3.82779 8.72579 4.4773 9.37531C5.12682 10.0248 6.00775 10.3897 6.92631 10.3897H20.78C21.6985 10.3897 22.5795 10.0248 23.229 9.37531C23.8785 8.72579 24.2434 7.84486 24.2434 6.92631C24.2434 6.00775 23.8785 5.12682 23.229 4.4773C22.5795 3.82779 21.6985 3.46289 20.78 3.46289Z" stroke="black" stroke-width="2.30894" stroke-linecap="round" stroke-linejoin="round"/>
</svg>
